<svg width="260" height="176" viewBox="0 0 260 176" fill="none" xmlns="http://www.w3.org/2000/svg">
<path d="M255.255 77.1643C260.951 82.9929 260.951 92.3031 255.255 98.1317L184.291 170.75C174.893 180.367 158.563 173.713 158.563 160.266L158.563 15.0301C158.563 1.58311 174.893 -5.07097 184.291 4.54639L255.255 77.1643Z" fill="black"/>
<path d="M127.219 0.148438C135.503 0.148441 142.219 6.86417 142.219 15.1484V160.148C142.219 168.433 135.503 175.148 127.219 175.148C118.934 175.148 112.219 168.433 112.219 160.148V102.54H14.041C6.28648 102.54 3.38961e-07 96.2536 0 88.499C0.000104287 80.7446 6.28655 74.458 14.041 74.458H112.219V15.1484C112.219 6.86417 118.934 0.148438 127.219 0.148438Z" fill="black"/>
</svg>
