<svg width="1024" height="1024" viewBox="0 0 1024 1024" fill="none" xmlns="http://www.w3.org/2000/svg">
<g filter="url(#filter0_d_31_106)">
<path d="M722.623 272C731.141 272 738.631 277.441 742.009 285.262C762.433 332.553 801.08 370.133 849.102 389.148C857.25 392.375 863 400.02 863 408.784V617.246C863 626.01 857.25 633.655 849.102 636.882C801.089 655.894 762.448 693.464 742.021 740.742C738.643 748.561 731.154 754 722.637 754H301.363C292.846 754 285.357 748.561 281.979 740.742C261.551 693.463 222.911 655.894 174.898 636.882C166.75 633.655 161 626.01 161 617.246V408.784C161 400.02 166.75 392.375 174.898 389.148C222.92 370.133 261.567 332.553 281.991 285.262C285.369 277.441 292.859 272 301.377 272H722.623ZM512 336C414.246 336 335 415.246 335 513C335 610.754 414.246 690 512 690C609.754 690 689 610.754 689 513C689 415.246 609.754 336 512 336Z" fill="#C7FB93"/>
<path d="M634.255 501.874C639.951 507.703 639.951 517.013 634.255 522.842L563.291 595.46C553.892 605.077 537.563 598.423 537.563 584.976L537.563 439.74C537.563 426.293 553.893 419.639 563.291 429.256L634.255 501.874Z" fill="#C7FB93"/>
<rect x="379" y="527.25" width="28.0816" height="142.11" rx="14.0408" transform="rotate(-90 379 527.25)" fill="#C7FB93"/>
<rect x="521.111" y="596.178" width="29.7836" height="167.639" rx="14.8918" transform="rotate(180 521.111 596.178)" fill="#C7FB93"/>
</g>
<defs>
<filter id="filter0_d_31_106" x="57" y="172" width="910" height="690" filterUnits="userSpaceOnUse" color-interpolation-filters="sRGB">
<feFlood flood-opacity="0" result="BackgroundImageFix"/>
<feColorMatrix in="SourceAlpha" type="matrix" values="0 0 0 0 0 0 0 0 0 0 0 0 0 0 0 0 0 0 127 0" result="hardAlpha"/>
<feOffset dy="4"/>
<feGaussianBlur stdDeviation="52"/>
<feComposite in2="hardAlpha" operator="out"/>
<feColorMatrix type="matrix" values="0 0 0 0 0 0 0 0 0 0 0 0 0 0 0 0 0 0 0.25 0"/>
<feBlend mode="normal" in2="BackgroundImageFix" result="effect1_dropShadow_31_106"/>
<feBlend mode="normal" in="SourceGraphic" in2="effect1_dropShadow_31_106" result="shape"/>
</filter>
</defs>
</svg>
