<svg width="1024" height="1024" viewBox="0 0 1024 1024" fill="none" xmlns="http://www.w3.org/2000/svg">
<path d="M512 321C617.486 321 703 406.514 703 512C703 617.486 617.486 703 512 703C406.514 703 321 617.486 321 512C321 406.514 406.514 321 512 321ZM494.253 416.391C478.516 412.174 462.34 421.513 458.123 437.25L442.922 493.981H394.5C384.283 493.981 376 502.264 376 512.481C376 522.699 384.283 530.981 394.5 530.981H433.007L421.888 572.479C417.671 588.217 427.011 604.393 442.748 608.609C458.485 612.826 474.661 603.487 478.878 587.75L515.112 452.521C519.329 436.783 509.99 420.608 494.253 416.391ZM582.253 416.391C566.516 412.174 550.34 421.513 546.123 437.25L509.888 572.479C505.671 588.217 515.011 604.393 530.748 608.609C546.485 612.826 562.661 603.487 566.878 587.75L582.089 530.981H630.5C640.717 530.981 649 522.699 649 512.481C649 502.264 640.717 493.981 630.5 493.981H592.003L603.112 452.521C607.329 436.783 597.99 420.608 582.253 416.391Z" fill="#C7FB93"/>
</svg>
