<svg width="1024" height="1024" viewBox="0 0 1024 1024" fill="none" xmlns="http://www.w3.org/2000/svg">
<path d="M512 321C617.486 321 703 406.514 703 512C703 617.486 617.486 703 512 703C406.514 703 321 617.486 321 512C321 406.514 406.514 321 512 321ZM458.5 413C442.208 413 429 426.208 429 442.5V493.981H394.5C384.283 493.981 376 502.264 376 512.481C376 522.699 384.283 530.981 394.5 530.981H429V582.5C429 598.792 442.208 612 458.5 612C474.792 612 488 598.792 488 582.5V442.5C488 426.208 474.792 413 458.5 413ZM566.5 413C550.208 413 537 426.208 537 442.5V582.5C537 598.792 550.208 612 566.5 612C582.792 612 596 598.792 596 582.5V530.981H630.5C640.717 530.981 649 522.699 649 512.481C649 502.264 640.717 493.981 630.5 493.981H596V442.5C596 426.208 582.792 413 566.5 413Z" fill="#C7FB93"/>
</svg>
