<svg width="1024" height="1024" viewBox="0 0 1024 1024" fill="none" xmlns="http://www.w3.org/2000/svg">
<g clip-path="url(#clip0_12_347)">
<path d="M182 357C182 301.772 226.772 257 282 257H707V766H282C226.772 766 182 721.228 182 666V357Z" fill="#4EA100"/>
<path d="M912.204 467.891C933.066 493.597 933.066 530.403 912.204 556.109L670.354 854.131C628.813 905.32 546 875.946 546 810.021L546 213.979C546 148.054 628.813 118.68 670.354 169.869L912.204 467.891Z" fill="#4EA100"/>
<rect x="553.758" y="408.755" width="59" height="199" rx="29.5" transform="rotate(15 553.758 408.755)" fill="#4EA100"/>
<rect x="465.758" y="408.755" width="59" height="199" rx="29.5" transform="rotate(15 465.758 408.755)" fill="#4EA100"/>
<path d="M460.374 530.981H394.5C384.283 530.981 376 522.699 376 512.481C376 502.264 384.283 493.981 394.5 493.981H460.374V530.981ZM630.5 493.981C640.717 493.981 649 502.264 649 512.481C649 522.699 640.717 530.981 630.5 530.981H566.793V493.981H630.5Z" fill="#4EA100"/>
</g>
<defs>
<clipPath id="clip0_12_347">
<rect width="1024" height="1024" rx="220" fill="white"/>
</clipPath>
</defs>
</svg>
