<svg width="1032" height="811" viewBox="0 0 1032 811" fill="none" xmlns="http://www.w3.org/2000/svg">
<g filter="url(#filter0_d_44_175)">
<rect x="109.5" y="105.5" width="813" height="592" rx="94.5" fill="#007814" stroke="url(#paint0_linear_44_175)" stroke-width="11"/>
<g filter="url(#filter1_d_44_175)">
<mask id="path-2-inside-1_44_175" fill="white">
<path d="M726.623 161C735.141 161 742.631 166.441 746.009 174.262C766.433 221.553 805.08 259.133 853.102 278.148C861.25 281.375 867 289.02 867 297.784V506.246C867 515.01 861.25 522.655 853.102 525.882C805.089 544.894 766.448 582.464 746.021 629.742C742.643 637.561 735.154 643 726.637 643H305.363C296.846 643 289.357 637.561 285.979 629.742C265.551 582.463 226.911 544.894 178.898 525.882C170.75 522.655 165 515.01 165 506.246V297.784C165 289.02 170.75 281.375 178.898 278.148C226.92 259.133 265.567 221.553 285.991 174.262C289.369 166.441 296.859 161 305.377 161L726.623 161ZM516 225C418.246 225 339 304.246 339 402C339 499.754 418.246 579 516 579C613.754 579 693 499.754 693 402C693 304.246 613.754 225 516 225Z"/>
</mask>
<path d="M726.623 161C735.141 161 742.631 166.441 746.009 174.262C766.433 221.553 805.08 259.133 853.102 278.148C861.25 281.375 867 289.02 867 297.784V506.246C867 515.01 861.25 522.655 853.102 525.882C805.089 544.894 766.448 582.464 746.021 629.742C742.643 637.561 735.154 643 726.637 643H305.363C296.846 643 289.357 637.561 285.979 629.742C265.551 582.463 226.911 544.894 178.898 525.882C170.75 522.655 165 515.01 165 506.246V297.784C165 289.02 170.75 281.375 178.898 278.148C226.92 259.133 265.567 221.553 285.991 174.262C289.369 166.441 296.859 161 305.377 161L726.623 161ZM516 225C418.246 225 339 304.246 339 402C339 499.754 418.246 579 516 579C613.754 579 693 499.754 693 402C693 304.246 613.754 225 516 225Z" fill="#00CD00"/>
<path d="M726.623 161V156V156V161ZM746.009 174.262L741.419 176.244V176.244L746.009 174.262ZM853.102 278.148L854.942 273.5V273.5L853.102 278.148ZM867 297.784H872V297.784L867 297.784ZM867 506.246L872 506.246V506.246H867ZM853.102 525.882L854.942 530.531V530.531L853.102 525.882ZM746.021 629.742L750.611 631.725V631.725L746.021 629.742ZM726.637 643V648H726.637L726.637 643ZM305.363 643L305.363 648H305.363V643ZM285.979 629.742L281.389 631.725L281.389 631.725L285.979 629.742ZM178.898 525.882L177.058 530.531L177.058 530.531L178.898 525.882ZM165 506.246H160V506.246L165 506.246ZM165 297.784L160 297.784V297.784H165ZM178.898 278.148L177.058 273.5L177.058 273.5L178.898 278.148ZM285.991 174.262L290.581 176.244L290.581 176.244L285.991 174.262ZM305.377 161V156H305.377L305.377 161ZM726.623 161V166C732.94 166 738.747 170.058 741.419 176.244L746.009 174.262L750.599 172.279C746.516 162.825 737.343 156 726.623 156V161ZM746.009 174.262L741.419 176.244C762.367 224.751 802.002 263.291 851.261 282.797L853.102 278.148L854.942 273.5C808.158 254.974 770.498 218.355 750.599 172.279L746.009 174.262ZM853.102 278.148L851.261 282.797C857.711 285.351 862 291.287 862 297.784L867 297.784L872 297.784C872 286.754 864.789 277.399 854.942 273.5L853.102 278.148ZM867 297.784H862V506.246H867H872V297.784H867ZM867 506.246L862 506.246C862 512.743 857.711 518.679 851.261 521.233L853.102 525.882L854.942 530.531C864.789 526.632 872 517.276 872 506.246L867 506.246ZM853.102 525.882L851.261 521.233C802.011 540.735 762.384 579.265 741.432 627.759L746.021 629.742L750.611 631.725C770.513 585.662 808.167 549.053 854.942 530.531L853.102 525.882ZM746.021 629.742L741.432 627.759C738.76 633.943 732.953 638 726.637 638L726.637 643L726.637 648C737.354 648 746.527 641.178 750.611 631.725L746.021 629.742ZM726.637 643V638H305.363V643V648H726.637V643ZM305.363 643L305.363 638C299.047 638 293.24 633.943 290.568 627.759L285.979 629.742L281.389 631.725C285.473 641.178 294.646 648 305.363 648L305.363 643ZM285.979 629.742L290.568 627.759C269.616 579.265 229.989 540.735 180.739 521.233L178.898 525.882L177.058 530.531C223.833 549.053 261.487 585.662 281.389 631.725L285.979 629.742ZM178.898 525.882L180.739 521.233C174.289 518.679 170 512.743 170 506.246L165 506.246L160 506.246C160 517.276 167.211 526.632 177.058 530.531L178.898 525.882ZM165 506.246H170V297.784H165H160V506.246H165ZM165 297.784L170 297.784C170 291.287 174.289 285.351 180.739 282.797L178.898 278.148L177.058 273.5C167.211 277.399 160 286.754 160 297.784L165 297.784ZM178.898 278.148L180.739 282.797C229.998 263.292 269.633 224.751 290.581 176.244L285.991 174.262L281.401 172.279C261.502 218.355 223.842 254.974 177.058 273.5L178.898 278.148ZM285.991 174.262L290.581 176.244C293.253 170.058 299.06 166 305.377 166L305.377 161L305.377 156C294.657 156 285.484 162.825 281.401 172.279L285.991 174.262ZM305.377 161V166L726.623 166V161V156L305.377 156V161ZM516 225V220C415.484 220 334 301.484 334 402H339H344C344 307.007 421.007 230 516 230V225ZM339 402H334C334 502.516 415.484 584 516 584V579V574C421.007 574 344 496.993 344 402H339ZM516 579V584C616.516 584 698 502.516 698 402H693H688C688 496.993 610.993 574 516 574V579ZM693 402H698C698 301.484 616.516 220 516 220V225V230C610.993 230 688 307.007 688 402H693Z" fill="url(#paint1_linear_44_175)" fill-opacity="0.6" mask="url(#path-2-inside-1_44_175)"/>
<path d="M638.255 390.874C643.951 396.703 643.951 406.013 638.255 411.842L567.291 484.46C557.892 494.077 541.563 487.423 541.563 473.976L541.563 328.74C541.563 315.293 557.893 308.639 567.291 318.256L638.255 390.874Z" fill="#00CD00"/>
<path d="M636.467 392.621C641.213 397.478 641.213 405.238 636.467 410.095L565.503 482.712C557.671 490.726 544.062 485.181 544.062 473.976L544.062 328.74C544.062 317.534 557.671 311.989 565.503 320.004L636.467 392.621Z" stroke="url(#paint2_linear_44_175)" stroke-opacity="0.6" stroke-width="5"/>
<mask id="path-6-inside-2_44_175" fill="white">
<path d="M510.218 317.539C518.442 317.539 525.109 324.206 525.109 332.431V402.136C525.109 402.16 525.11 402.185 525.11 402.209C525.11 402.233 525.109 402.257 525.109 402.281V470.286C525.109 478.511 518.442 485.178 510.218 485.178C501.993 485.178 495.326 478.511 495.326 470.286V416.25H397.041C389.286 416.25 383 409.964 383 402.209C383 394.455 389.287 388.168 397.041 388.168H495.326V332.431C495.326 324.206 501.993 317.539 510.218 317.539Z"/>
</mask>
<path d="M510.218 317.539C518.442 317.539 525.109 324.206 525.109 332.431V402.136C525.109 402.16 525.11 402.185 525.11 402.209C525.11 402.233 525.109 402.257 525.109 402.281V470.286C525.109 478.511 518.442 485.178 510.218 485.178C501.993 485.178 495.326 478.511 495.326 470.286V416.25H397.041C389.286 416.25 383 409.964 383 402.209C383 394.455 389.287 388.168 397.041 388.168H495.326V332.431C495.326 324.206 501.993 317.539 510.218 317.539Z" fill="#00CD00"/>
<path d="M510.218 317.539L510.218 312.539H510.218V317.539ZM525.109 332.431H530.109V332.431H525.109ZM525.109 402.136H520.109V402.149L520.109 402.161L525.109 402.136ZM525.11 402.209H530.11V402.209L525.11 402.209ZM525.109 402.281L520.109 402.256L520.109 402.269V402.281H525.109ZM525.109 470.286L530.109 470.286V470.286H525.109ZM510.218 485.178V490.178H510.218L510.218 485.178ZM495.326 470.286H490.326V470.286L495.326 470.286ZM495.326 416.25H500.326V411.25H495.326V416.25ZM397.041 416.25V411.25V411.25V416.25ZM383 402.209L378 402.209V402.209H383ZM397.041 388.168V383.168V383.168V388.168ZM495.326 388.168V393.168H500.326V388.168H495.326ZM495.326 332.431H500.326V332.431H495.326ZM510.218 317.539L510.218 322.539C515.681 322.539 520.109 326.968 520.109 332.431H525.109H530.109C530.109 321.445 521.204 312.539 510.218 312.539L510.218 317.539ZM525.109 332.431H520.109V402.136H525.109H530.109V332.431H525.109ZM525.109 402.136L520.109 402.161C520.11 402.192 520.11 402.217 520.11 402.234C520.11 402.242 520.11 402.25 520.111 402.255C520.111 402.259 520.111 402.265 520.111 402.266C520.111 402.271 520.111 402.266 520.111 402.258C520.111 402.249 520.11 402.231 520.11 402.209L525.11 402.209L530.11 402.209C530.11 402.174 530.11 402.145 530.11 402.124C530.109 402.103 530.109 402.086 530.109 402.079C530.109 402.068 530.109 402.071 530.109 402.074C530.109 402.079 530.109 402.092 530.109 402.11L525.109 402.136ZM525.11 402.209H520.11C520.11 402.186 520.111 402.168 520.111 402.159C520.111 402.15 520.111 402.145 520.111 402.15C520.111 402.151 520.111 402.157 520.111 402.161C520.111 402.166 520.11 402.174 520.11 402.183C520.11 402.199 520.11 402.225 520.109 402.256L525.109 402.281L530.109 402.306C530.109 402.325 530.109 402.339 530.109 402.344C530.109 402.347 530.109 402.351 530.109 402.34C530.109 402.333 530.109 402.316 530.11 402.295C530.11 402.274 530.11 402.244 530.11 402.209H525.11ZM525.109 402.281H520.109V470.286H525.109H530.109V402.281H525.109ZM525.109 470.286L520.109 470.286C520.109 475.749 515.681 480.178 510.218 480.178L510.218 485.178L510.218 490.178C521.204 490.178 530.109 481.272 530.109 470.286L525.109 470.286ZM510.218 485.178V480.178C504.755 480.178 500.326 475.749 500.326 470.286L495.326 470.286L490.326 470.286C490.326 481.272 499.232 490.178 510.218 490.178V485.178ZM495.326 470.286H500.326V416.25H495.326H490.326V470.286H495.326ZM495.326 416.25V411.25H397.041V416.25V421.25H495.326V416.25ZM397.041 416.25V411.25C392.048 411.25 388 407.202 388 402.209H383H378C378 412.725 386.525 421.25 397.041 421.25V416.25ZM383 402.209L388 402.209C388 397.216 392.048 393.168 397.041 393.168V388.168V383.168C386.525 383.168 378 391.693 378 402.209L383 402.209ZM397.041 388.168V393.168H495.326V388.168V383.168H397.041V388.168ZM495.326 388.168H500.326V332.431H495.326H490.326V388.168H495.326ZM495.326 332.431H500.326C500.326 326.968 504.755 322.539 510.218 322.539V317.539V312.539C499.232 312.539 490.326 321.445 490.326 332.431H495.326Z" fill="url(#paint3_linear_44_175)" fill-opacity="0.6" mask="url(#path-6-inside-2_44_175)"/>
</g>
</g>
<defs>
<filter id="filter0_d_44_175" x="0" y="0" width="1032" height="811" filterUnits="userSpaceOnUse" color-interpolation-filters="sRGB">
<feFlood flood-opacity="0" result="BackgroundImageFix"/>
<feColorMatrix in="SourceAlpha" type="matrix" values="0 0 0 0 0 0 0 0 0 0 0 0 0 0 0 0 0 0 127 0" result="hardAlpha"/>
<feOffset dy="4"/>
<feGaussianBlur stdDeviation="52"/>
<feComposite in2="hardAlpha" operator="out"/>
<feColorMatrix type="matrix" values="0 0 0 0 0 0 0 0 0 0 0 0 0 0 0 0 0 0 0.25 0"/>
<feBlend mode="normal" in2="BackgroundImageFix" result="effect1_dropShadow_44_175"/>
<feBlend mode="normal" in="SourceGraphic" in2="effect1_dropShadow_44_175" result="shape"/>
</filter>
<filter id="filter1_d_44_175" x="139" y="135" width="754" height="534" filterUnits="userSpaceOnUse" color-interpolation-filters="sRGB">
<feFlood flood-opacity="0" result="BackgroundImageFix"/>
<feColorMatrix in="SourceAlpha" type="matrix" values="0 0 0 0 0 0 0 0 0 0 0 0 0 0 0 0 0 0 127 0" result="hardAlpha"/>
<feOffset/>
<feGaussianBlur stdDeviation="13"/>
<feComposite in2="hardAlpha" operator="out"/>
<feColorMatrix type="matrix" values="0 0 0 0 0 0 0 0 0 0 0 0 0 0 0 0 0 0 0.1 0"/>
<feBlend mode="normal" in2="BackgroundImageFix" result="effect1_dropShadow_44_175"/>
<feBlend mode="normal" in="SourceGraphic" in2="effect1_dropShadow_44_175" result="shape"/>
</filter>
<linearGradient id="paint0_linear_44_175" x1="336.706" y1="100" x2="695.294" y2="703" gradientUnits="userSpaceOnUse">
<stop stop-color="#00B14F"/>
<stop offset="1" stop-color="#006721"/>
</linearGradient>
<linearGradient id="paint1_linear_44_175" x1="516" y1="161" x2="516" y2="643" gradientUnits="userSpaceOnUse">
<stop stop-color="#32E100"/>
<stop offset="1" stop-color="#5AFC00"/>
</linearGradient>
<linearGradient id="paint2_linear_44_175" x1="648.5" y1="401.358" x2="505.917" y2="401.358" gradientUnits="userSpaceOnUse">
<stop stop-color="#32E100"/>
<stop offset="1" stop-color="#5AFC00"/>
</linearGradient>
<linearGradient id="paint3_linear_44_175" x1="454.055" y1="317.539" x2="454.055" y2="485.178" gradientUnits="userSpaceOnUse">
<stop stop-color="#32E100"/>
<stop offset="1" stop-color="#5AFC00"/>
</linearGradient>
</defs>
</svg>
