<svg width="1022" height="763" viewBox="0 0 1022 763" fill="none" xmlns="http://www.w3.org/2000/svg">
<g filter="url(#filter0_d_17_28)">
<rect x="104" y="100" width="814" height="555" rx="100" fill="#4EA100"/>
<circle cx="511" cy="378" r="156" fill="#4EA100"/>
<path d="M718.239 161C726.189 161 733.301 165.755 736.968 172.809C759.061 215.304 796.374 248.616 841.684 265.524C850.045 268.644 856 276.388 856 285.312V470.718C856 479.642 850.045 487.386 841.684 490.506C796.384 507.411 759.077 540.713 736.983 583.194C733.315 590.246 726.204 595 718.255 595H303.745C295.796 595 288.685 590.246 285.017 583.194C262.923 540.713 225.616 507.411 180.316 490.506C171.955 487.386 166 479.642 166 470.718V285.312C166 276.388 171.955 268.644 180.316 265.524C225.626 248.616 262.939 215.304 285.032 172.809C288.699 165.755 295.811 161 303.761 161L718.239 161Z" fill="#C7FB93"/>
<circle cx="511" cy="378" r="156" fill="#4EA100"/>
<path d="M617.755 367.883C623.451 373.711 623.451 383.021 617.755 388.85L559.478 448.485C550.08 458.102 533.75 451.448 533.75 438.001L533.75 318.732C533.75 305.285 550.08 298.631 559.478 308.248L617.755 367.883Z" fill="#C7FB93"/>
<rect x="394" y="391.491" width="24.7499" height="125.25" rx="12.375" transform="rotate(-90 394 391.491)" fill="#C7FB93"/>
<rect x="519.25" y="452.241" width="26.2499" height="147.75" rx="13.125" transform="rotate(180 519.25 452.241)" fill="#C7FB93"/>
</g>
<defs>
<filter id="filter0_d_17_28" x="0" y="0" width="1022" height="763" filterUnits="userSpaceOnUse" color-interpolation-filters="sRGB">
<feFlood flood-opacity="0" result="BackgroundImageFix"/>
<feColorMatrix in="SourceAlpha" type="matrix" values="0 0 0 0 0 0 0 0 0 0 0 0 0 0 0 0 0 0 127 0" result="hardAlpha"/>
<feOffset dy="4"/>
<feGaussianBlur stdDeviation="52"/>
<feComposite in2="hardAlpha" operator="out"/>
<feColorMatrix type="matrix" values="0 0 0 0 0 0 0 0 0 0 0 0 0 0 0 0 0 0 0.25 0"/>
<feBlend mode="normal" in2="BackgroundImageFix" result="effect1_dropShadow_17_28"/>
<feBlend mode="normal" in="SourceGraphic" in2="effect1_dropShadow_17_28" result="shape"/>
</filter>
</defs>
</svg>
